HIERARCHY
ROOT SpineBase
{
  OFFSET 0.000000 0.000000 0.000000
  CHANNELS 6 Xposition Yposition Zposition Zrotation Xrotation Yrotation
  JOINT SpineMid
  {
    OFFSET -0.000000 28.993556 0.000000
    CHANNELS 3 Zrotation Xrotation Yrotation
    JOINT SpineShoulder
    {
      OFFSET 0.001257 21.526457 -0.637986
      CHANNELS 3 Zrotation Xrotation Yrotation
      JOINT Neck
      {
        OFFSET -0.007755 7.134628 -0.508922
        CHANNELS 3 Zrotation Xrotation Yrotation
        JOINT Head
        {
          OFFSET -2.992265 12.715509 -0.450917
          CHANNELS 3 Zrotation Xrotation Yrotation
          End Site
          {
            OFFSET 0 0 0
          }
        }
      }
      JOINT ShoulderLeft
      {
        OFFSET -14.615180 -3.639785 6.013133
        CHANNELS 3 Zrotation Xrotation Yrotation
        JOINT ElbowLeft
        {
          OFFSET -1.218560 -26.034876 3.333328
          CHANNELS 3 Zrotation Xrotation Yrotation
          JOINT WristLeft
          {
            OFFSET 2.042948 -21.288324 -2.152997
            CHANNELS 3 Zrotation Xrotation Yrotation
            JOINT HandLeft
            {
              OFFSET -0.659049 -5.470016 -0.338575
              CHANNELS 3 Zrotation Xrotation Yrotation
              JOINT HandTipLeft
              {
                OFFSET 1.545360 -6.685209 -3.704212
                CHANNELS 3 Zrotation Xrotation Yrotation
                End Site
                {
                  OFFSET 0 0 0
                }
              }
              JOINT ThumbLeft
              {
                OFFSET 2.112825 0.018805 -5.865771
                CHANNELS 3 Zrotation Xrotation Yrotation
                End Site
                {
                  OFFSET 0 0 0
                }
              }
            }
          }
        }
      }
      JOINT ShoulderRight
      {
        OFFSET 11.200149 -4.012619 -11.212992
        CHANNELS 3 Zrotation Xrotation Yrotation
        JOINT ElbowRight
        {
          OFFSET 5.903851 -22.961116 -1.873952
          CHANNELS 3 Zrotation Xrotation Yrotation
          JOINT WristRight
          {
            OFFSET -1.407021 -20.377655 -4.255458
            CHANNELS 3 Zrotation Xrotation Yrotation
            JOINT HandRight
            {
              OFFSET -1.216099 -6.227432 0.213988
              CHANNELS 3 Zrotation Xrotation Yrotation
              JOINT HandTipRight
              {
                OFFSET 0.116891 -6.517329 0.565850
                CHANNELS 3 Zrotation Xrotation Yrotation
                End Site
                {
                  OFFSET 0 0 0
                }
              }
              JOINT ThumbRight
              {
                OFFSET -3.023290 -0.620041 -0.830083
                CHANNELS 3 Zrotation Xrotation Yrotation
                End Site
                {
                  OFFSET 0 0 0
                }
              }
            }
          }
        }
      }
    }
  }
  JOINT HipLeft
  {
    OFFSET -5.399660 0.818000 -0.264085
    CHANNELS 3 Zrotation Xrotation Yrotation
    JOINT KneeLeft
    {
      OFFSET 5.312193 -25.273485 6.746578
      CHANNELS 3 Zrotation Xrotation Yrotation
      JOINT AnkleLeft
      {
        OFFSET 8.305101 -33.528682 9.705857
        CHANNELS 3 Zrotation Xrotation Yrotation
        JOINT FootLeft
        {
          OFFSET -5.073658 -1.599167 -12.323210
          CHANNELS 3 Zrotation Xrotation Yrotation
          End Site
          {
            OFFSET 0 0 0
          }
        }
      }
    }
  }
  JOINT HipRight
  {
    OFFSET 5.301050 0.472556 -6.382597
    CHANNELS 3 Zrotation Xrotation Yrotation
    JOINT KneeRight
    {
      OFFSET 8.839734 -26.176316 5.347324
      CHANNELS 3 Zrotation Xrotation Yrotation
      JOINT AnkleRight
      {
        OFFSET 7.083424 -33.722399 8.137193
        CHANNELS 3 Zrotation Xrotation Yrotation
        JOINT FootRight
        {
          OFFSET -2.909646 -5.233049 -2.121799
          CHANNELS 3 Zrotation Xrotation Yrotation
          End Site
          {
            OFFSET 0 0 0
          }
        }
      }
    }
  }
}
MOTION
Frames: 13
Frame Time: 0.033333
6.758088 68.188245 340.851378 0.000000 0.000000 29.760301 -0.000000 0.000000 -29.760301 -0.000000 0.000000 0.000000 -0.000000 0.000000 0.000000 0.000000 0.000000 0.000000 -0.000000 0.000000 0.000000 -0.000000 0.000000 0.000000 -0.000000 0.000000 0.000000 -0.000000 0.000000 0.000000 0.000000 0.000000 0.000000 0.000000 0.000000 0.000000 -0.000000 0.000000 0.000000 -0.000000 0.000000 0.000000 -0.000000 0.000000 0.000000 -0.000000 0.000000 0.000000 0.000000 0.000000 0.000000 0.000000 0.000000 0.000000 -0.000000 0.000000 -29.760301 -0.000000 0.000000 0.000000 -0.000000 0.000000 0.000000 0.000000 0.000000 0.000000 -0.000000 0.000000 -29.760301 -0.000000 0.000000 0.000000 -0.000000 0.000000 0.000000 0.000000 0.000000 0.000000
6.803371 68.172759 340.821028 0.069122 0.067732 29.714005 -0.093606 -0.024564 -29.714066 -0.000000 0.000000 0.000000 -0.000000 0.000000 0.000000 0.000000 0.000000 0.000000 -0.000000 0.000000 0.000000 -0.000000 0.000000 0.000000 1.715687 -2.415301 0.221705 -0.439420 3.406697 -0.681908 0.000000 0.000000 0.000000 0.000000 0.000000 0.000000 -0.000000 0.000000 0.000000 -0.000000 0.000000 0.000000 -0.000000 0.000000 0.000000 -0.000000 0.000000 0.000000 0.000000 0.000000 0.000000 0.000000 0.000000 0.000000 -0.093606 -0.024564 -29.714066 -0.000000 0.000000 0.000000 3.834628 -9.267693 0.809613 0.000000 0.000000 0.000000 -0.093606 -0.024564 -29.714066 -0.000000 0.000000 0.000000 0.274431 12.725156 -6.933377 0.000000 0.000000 0.000000
6.834712 68.157594 340.797111 0.120544 0.116957 29.692574 -0.162650 -0.041889 -29.692757 -0.000000 0.000000 0.000000 -0.000000 0.000000 0.000000 0.000000 0.000000 0.000000 0.002912 1.294247 -0.060327 -0.001550 -1.294249 0.060277 3.182601 -4.211042 0.430003 -0.960654 5.880327 -1.204651 0.000000 0.000000 0.000000 0.000000 0.000000 0.000000 -0.000000 0.000000 0.000000 -0.000000 0.000000 0.000000 -0.000000 0.000000 0.000000 -0.234977 0.892603 -0.002563 0.000000 0.000000 0.000000 0.000000 0.000000 0.000000 -1.210676 -0.826570 -30.091635 0.641021 2.184365 0.663731 8.583283 -21.123157 2.602160 0.000000 0.000000 0.000000 -0.162650 -0.041889 -29.692757 -0.035888 -1.260509 -0.273129 1.076614 22.725012 -11.595050 0.000000 0.000000 0.000000
6.852110 68.142748 340.779629 0.154273 0.147684 29.695877 -0.207174 -0.051861 -29.696170 -0.000000 0.000000 0.000000 -0.000000 0.000000 0.000000 0.000000 0.000000 0.000000 0.021161 1.819250 -0.082953 0.281316 -1.050430 0.133098 4.087576 -6.147202 0.600978 -1.554909 7.430808 -1.534400 0.000000 0.000000 0.000000 0.000000 0.000000 0.000000 -0.000000 0.000000 0.000000 -0.000000 0.000000 0.000000 -0.000000 0.000000 0.000000 -0.539000 0.988989 -0.024428 0.000000 0.000000 0.000000 0.000000 0.000000 0.000000 -1.608177 -1.074109 -30.230892 0.914441 2.912129 0.897801 14.499100 -32.360571 6.091977 0.000000 0.000000 0.000000 -0.207174 -0.051861 -29.696170 -0.031383 -1.664118 -0.356373 1.739610 28.884175 -14.840978 0.000000 0.000000 0.000000
6.855566 68.128223 340.768582 0.170319 0.159924 29.723789 -0.227203 -0.054434 -29.724135 -0.000000 0.000000 0.000000 -0.000000 0.000000 0.000000 0.000000 0.000000 0.000000 0.050468 2.262219 -0.100688 0.249748 -1.457734 0.155410 5.026052 -6.718401 0.690220 -2.217584 8.066719 -1.655387 0.000000 0.000000 0.000000 0.000000 0.000000 0.000000 -0.000000 0.000000 0.000000 -0.000000 0.000000 0.000000 -0.000000 0.000000 0.000000 -0.965927 0.844603 -0.061647 0.000000 0.000000 0.000000 0.000000 0.000000 0.000000 -1.872300 -1.215954 -30.351809 1.163260 3.404044 1.070941 20.954082 -41.504333 10.886564 0.000000 0.000000 0.000000 -0.227203 -0.054434 -29.724135 -0.009466 -1.887608 -0.397396 1.957620 32.835844 -16.822081 0.000000 0.000000 0.000000
6.845080 68.114018 340.763968 0.168695 0.153690 29.776195 -0.222747 -0.049622 -29.776517 -0.000000 0.000000 0.000000 -0.340160 0.730471 0.162155 0.000000 0.000000 0.000000 0.090741 2.622858 -0.113581 -0.085633 -2.623030 0.109543 5.978466 -5.816829 0.641111 -2.943738 7.789048 -1.568273 0.000000 0.000000 0.000000 0.000000 0.000000 0.000000 -0.000000 0.000000 0.000000 -0.000000 0.000000 0.000000 -0.000000 0.000000 0.000000 -1.511151 0.460941 -0.116932 0.000000 0.000000 0.000000 0.000000 0.000000 0.000000 -2.005323 -1.254425 -30.454146 1.390869 3.662975 1.185609 26.591467 -47.366246 15.716903 0.000000 0.000000 0.000000 -0.222747 -0.049622 -29.776517 0.030215 -1.919651 -0.393850 1.614353 35.182442 -17.740978 0.000000 0.000000 0.000000
6.820091 68.107604 340.746255 0.144505 0.105319 29.912788 -0.177776 -0.019227 -29.912950 -0.000000 0.000000 0.000000 -0.329604 1.007283 0.228478 0.000000 0.000000 0.000000 0.147520 3.070044 -0.129244 -0.140799 -3.070360 0.121518 6.508558 -4.569851 0.411403 -4.471570 4.222326 -1.246935 0.000000 0.000000 0.000000 0.000000 0.000000 0.000000 -0.000000 0.000000 0.000000 -0.000000 0.000000 0.000000 0.453471 2.101601 -0.403749 -4.037870 -3.888868 -0.145240 0.000000 0.000000 0.000000 0.000000 0.000000 0.000000 -1.902595 -1.209511 -30.567968 1.486633 3.740465 1.228967 29.993143 -49.990384 19.304526 0.000000 0.000000 0.000000 -0.177776 -0.019227 -29.912950 0.128845 -1.040037 -0.185756 2.068750 33.614177 -17.926804 0.000000 0.000000 0.000000
6.787818 68.089212 340.746769 0.119959 0.064103 30.020449 -0.135938 0.004514 -30.020510 -0.000000 0.000000 0.000000 -0.296591 1.078975 0.246423 0.000000 0.000000 0.000000 0.247711 3.396899 -0.135195 -0.240122 -3.397444 0.120728 6.805894 -3.451018 0.201247 -5.517926 4.653443 -0.314875 0.000000 0.000000 0.000000 0.000000 0.000000 0.000000 -0.000000 0.000000 0.000000 -0.000000 0.000000 0.000000 0.814142 2.021739 -0.381998 -5.437444 -4.517860 -0.358270 0.000000 0.000000 0.000000 0.000000 0.000000 0.000000 -1.847607 -0.779305 -30.644722 1.987398 3.244660 1.249142 32.488552 -51.584451 22.226356 0.000000 0.000000 0.000000 -0.092819 1.004225 -29.815232 0.731150 -1.902814 -0.341557 -1.206150 35.323090 -16.583633 0.000000 0.000000 0.000000
6.740272 68.077135 340.762052 0.082304 0.025523 30.236723 -0.083959 0.019395 -30.236727 -0.000000 0.000000 0.000000 -0.307381 1.005067 0.228533 0.000000 0.000000 0.000000 0.375370 3.520368 -0.128824 -0.368153 -3.521129 0.105973 7.054430 -1.203407 -0.219795 -6.746705 0.208497 -0.031926 0.000000 0.000000 0.000000 0.000000 0.000000 0.000000 -0.000000 0.000000 0.000000 -0.000000 0.000000 0.000000 1.209990 1.687651 -0.306619 -7.450228 -4.820784 -0.682413 0.000000 0.000000 0.000000 0.000000 0.000000 0.000000 -1.521201 -0.928357 -30.775266 1.657563 3.348602 1.190676 31.879935 -50.710843 22.624655 0.000000 0.000000 0.000000 -0.043720 0.982987 -30.040563 0.801670 -1.797262 -0.296352 -4.136188 32.088996 -13.219167 0.000000 0.000000 0.000000
6.661672 68.063088 340.825460 0.001003 -0.045747 30.363268 0.022259 0.039979 -30.363275 -0.000000 0.000000 0.000000 -0.338236 0.885599 0.199219 0.000000 0.000000 0.000000 0.499210 3.488976 -0.115112 -1.059380 -4.273149 0.028652 7.095794 1.157395 -0.549920 -6.525862 -0.429587 0.428785 0.000000 0.000000 0.000000 0.000000 0.000000 0.000000 -0.000000 0.000000 0.000000 -0.000000 0.000000 0.000000 1.321966 1.014593 -0.164835 -5.322409 -3.531525 -0.409848 0.000000 0.000000 0.000000 0.000000 0.000000 0.000000 -0.934061 -0.866104 -30.733274 1.254706 2.886776 0.989780 26.960491 -46.358598 19.415121 0.000000 0.000000 0.000000 0.291649 1.334269 -30.028383 1.033168 -2.279318 -0.378027 -8.735351 32.076214 -10.361137 0.000000 0.000000 0.000000
6.604243 68.052017 340.881752 -0.051624 -0.074536 30.368188 0.082223 0.038210 -30.368249 -0.000000 0.000000 0.000000 -0.000000 0.000000 0.000000 0.000000 0.000000 0.000000 0.578854 3.473753 -0.106517 -1.011919 -4.399652 -0.002985 6.242046 2.346431 -0.658951 -4.849318 -1.056069 0.054744 0.000000 0.000000 0.000000 0.000000 0.000000 0.000000 -0.000000 0.000000 0.000000 -0.000000 0.000000 0.000000 0.770740 1.472563 -0.271476 -3.278269 -4.617958 -0.156646 0.000000 0.000000 0.000000 0.000000 0.000000 0.000000 -0.531546 -0.692432 -30.611773 1.124833 2.201679 0.805799 25.538278 -45.342098 17.499738 0.000000 0.000000 0.000000 0.408692 0.953701 -30.084967 0.176432 -0.955809 -0.284637 -7.236347 29.012953 -10.211396 0.000000 0.000000 0.000000
6.564875 68.042323 340.895788 -0.077006 -0.077816 30.526886 0.105859 0.027915 -30.526964 -0.000000 0.000000 0.000000 -0.000000 0.000000 0.000000 0.000000 0.000000 0.000000 0.539218 3.174643 -0.094889 -0.757100 -4.135093 -0.018664 4.674824 1.841958 -0.424660 -1.892110 0.001138 -0.831980 0.000000 0.000000 0.000000 0.000000 0.000000 0.000000 -0.000000 0.000000 0.000000 -0.000000 0.000000 0.000000 0.243294 2.084735 -0.403639 -2.113105 -4.147004 0.091590 0.000000 0.000000 0.000000 0.000000 0.000000 0.000000 0.105859 0.027915 -30.526964 0.998840 0.928090 0.511046 34.493502 -51.216702 25.789911 0.000000 0.000000 0.000000 0.105859 0.027915 -30.526964 -0.000000 0.000000 0.000000 -6.159437 30.741299 -11.630152 0.000000 0.000000 0.000000
6.554222 68.039703 340.876773 -0.068993 -0.043977 30.749733 0.081778 0.002519 -30.749761 -0.000000 0.000000 0.000000 -0.000000 0.000000 0.000000 0.000000 0.000000 0.000000 0.579121 3.086940 -0.086294 -0.766387 -4.444166 -0.068285 4.085282 2.503781 -0.402958 -0.974706 -3.790298 -1.762291 0.000000 0.000000 0.000000 0.000000 0.000000 0.000000 -0.000000 0.000000 0.000000 -0.000000 0.000000 0.000000 0.204813 1.901224 -0.368005 -1.278930 -1.599967 0.239610 0.000000 0.000000 0.000000 0.000000 0.000000 0.000000 0.081778 0.002519 -30.749761 1.232868 0.714525 0.525751 37.654078 -53.152797 28.490894 0.000000 0.000000 0.000000 0.081778 0.002519 -30.749761 -0.000000 0.000000 0.000000 -5.552749 25.983633 -9.938981 0.000000 0.000000 0.000000
